<svg xmlns="http://www.w3.org/2000/svg" viewBox="0 0 64 64">
  <defs>
    <linearGradient id="g" x1="0" x2="1" y1="0" y2="1">
      <stop offset="0%" stop-color="#0f172a"/>
      <stop offset="100%" stop-color="#1d4ed8"/>
    </linearGradient>
  </defs>
  <rect width="64" height="64" rx="14" fill="url(#g)"/>
  <path d="M14 21a6 6 0 0 1 6-6h24a6 6 0 0 1 6 6v14a14 14 0 0 1-14 14h-8a14 14 0 0 1-14-14V21z" fill="#ffffff" opacity=".12"/>
  <path d="M18 20v18c0 6.6 5.4 12 12 12h4c6.6 0 12-5.4 12-12V20" fill="none" stroke="#e2e8f0" stroke-width="4" stroke-linecap="round"/>
  <path d="M24 24v14a8 8 0 0 0 8 8" fill="none" stroke="#93c5fd" stroke-width="4" stroke-linecap="round"/>
  <path d="M46 20v18c0 6.6-5.4 12-12 12" fill="none" stroke="#60a5fa" stroke-width="4" stroke-linecap="round"/>
  <circle cx="32" cy="16" r="3" fill="#bfdbfe"/>
</svg>
