<svg xmlns="http://www.w3.org/2000/svg" viewBox="0 0 64 64">
  <defs>
    <linearGradient id="bg" x1="0" y1="0" x2="1" y2="1">
      <stop offset="0%" stop-color="#0d6efd" />
      <stop offset="100%" stop-color="#20c997" />
    </linearGradient>
  </defs>
  <rect width="64" height="64" rx="14" fill="#0b1220" />
  <rect x="4" y="4" width="56" height="56" rx="12" fill="url(#bg)" opacity="0.12" />
  <circle cx="24" cy="24" r="8" fill="#eaf2ff" />
  <path d="M10 44c1.8-7.2 7.5-11 14-11s12.2 3.8 14 11" fill="#eaf2ff" />
  <path d="M44 14l10 4v8c0 7.8-4.8 14.3-10 16.8C38.8 40.3 34 33.8 34 26v-8l10-4z" fill="#ffd166" />
  <path d="M43 30l-3-3 2-2 1 1 4-4 2 2-6 6z" fill="#1f2937" />
</svg>
